<svg xmlns="http://www.w3.org/2000/svg" viewBox="0 0 512 512"><path d="M266.1 237.1h-82.2c-6.2 0-10.4 5.2-10.4 10.4v243c0 6.3 5.2 10.4 10.4 10.4h82.2c5.2 0 10.4-4.2 10.4-10.4v-243c0-6.2-5.2-10.4-10.4-10.4m-10.4 243h-61.4V258h61.4zm-152-207.5H21.5c-6.2 0-10.4 5.2-10.4 10.4v207.6c0 6.3 5.2 10.4 10.4 10.4h82.2c5.2 0 10.4-4.2 10.4-10.4V283c0-6.3-5.2-10.4-10.4-10.4M93.3 480.1H31.9V293.4h61.4zm405.9-322.3-103-142.9c-4.2-5.2-12.5-5.2-16.6 0l-103 142.9c-4.2 5.9-2.6 15.6 8.3 15.6h51v317.1c0 6.3 5.2 10.4 10.4 10.4h82.2c5.2 0 10.4-4.2 11.4-10.4v-317h51c10.2 0 12.4-10.4 8.3-15.7m-70.8-5.2c-6.2 0-10.4 5.2-10.4 10.4v317.1h-62.4V163c0-6.3-5.2-10.4-10.4-10.4h-41.6l83.2-114.7L470 152.6z"/></svg>